# Blender v2.83.1 OBJ File: ''
# www.blender.org
mtllib polygons.mtl
o Plane
v -3.850000 3.777817 -3.777817
v -3.850000 2.363604 -2.363603
v -1.850000 3.777817 -3.777817
v -1.850000 2.363604 -2.363604
v -0.850000 4.484924 -4.484924
v -0.850000 3.070711 -3.070710
v 1.150000 3.070711 -3.070710
v 1.150000 1.656497 -1.656497
v 2.150000 3.777817 -3.777817
v 2.150000 2.363604 -2.363604
v -2.850000 0.777817 -0.777818
v 4.150000 2.363604 -2.363604
v -3.850000 -0.636396 0.636396
v -1.850000 -0.636396 0.636396
v 1.150000 0.777817 -0.777818
v -0.850000 0.070711 -0.070711
v 0.150000 -0.636396 0.636396
v 4.150000 -0.636396 0.636395
v 3.150000 0.777817 -0.777818
v 2.150000 0.070711 -0.070711
vt 0.000000 0.000000
vt 1.000000 0.000000
vt 1.000000 1.000000
vt 0.000000 1.000000
vt 0.000000 0.000000
vt 1.000000 0.000000
vt 1.000000 1.000000
vt 0.000000 1.000000
vt 0.000000 0.000000
vt 0.000000 0.000000
vt 0.000000 0.000000
vt 0.000000 0.000000
vt 0.000000 0.000000
vt 0.000000 0.000000
vt 0.000000 0.000000
vt 0.000000 0.000000
vt 0.000000 0.000000
vt 0.000000 0.000000
vt 0.000000 0.000000
vt 0.000000 0.000000
vn 0.0000 0.7071 0.7071
usemtl None
s off
f 1/1/1 2/2/1 4/3/1 3/4/1
f 5/5/1 6/6/1 8/7/1 7/8/1
f 10/9/1 12/10/1 9/11/1
f 13/12/1 14/13/1 11/14/1
f 16/15/1 17/16/1 15/17/1
f 19/18/1 20/19/1 18/20/1
